<svg xmlns="http://www.w3.org/2000/svg" width="79.997" height="80" viewBox="0 0 79.997 80">
  <g id="Group_19449" data-name="Group 19449" transform="translate(-30 -142)">
    <g id="Group_19442" data-name="Group 19442" transform="translate(30 142)">
      <rect id="Mask" width="79.998" height="80" rx="39.999" fill="#0336ff"/>
    </g>
    <g id="Group_1" data-name="Group 1" transform="translate(-288.037 -10)">
      <path id="Path_1" data-name="Path 1" d="M364.812,185.1a8.327,8.327,0,1,0-13.64,0c-11.125,4.107-13.277,15.581-7.988,22.77a14.13,14.13,0,0,0,3.513,3.359c2.287,1.537,5.96.87,5.777-2.955v-1.991c0-1.891-.832-2.6-2.09-2.6h-.256a1.075,1.075,0,0,1-.623-1.844l6.812-5.8a2.294,2.294,0,0,1,3.417,0l6.812,5.8a1.075,1.075,0,0,1-.624,1.844h-.255c-1.259,0-2.09.712-2.09,2.6,0,3.359-.016,1.923.056,2.548.434,3.771,4.071,3.436,5.772,2.4a12.538,12.538,0,0,0,3.514-3.359c5.289-7.189,3.018-18.663-8.108-22.77" transform="translate(0 0)" fill="#fff"/>
      <path id="Rectangle_1" data-name="Rectangle 1" d="M2.09,0h0a2.09,2.09,0,0,1,2.09,2.09v0A2.092,2.092,0,0,1,2.09,4.183h0A2.09,2.09,0,0,1,0,2.092v0A2.09,2.09,0,0,1,2.09,0Z" transform="translate(355.944 205.239)" fill="#fff"/>
    </g>
  </g>
</svg>
