<svg xmlns="http://www.w3.org/2000/svg" width="120" height="172.338" viewBox="0 0 120 172.338">
  <g id="Group_19530" data-name="Group 19530" transform="translate(-127.5 -338)">
    <g id="Group_1" data-name="Group 1" transform="translate(-212.929 166)">
      <path id="Path_1" data-name="Path 1" d="M423.523,216.656a28.379,28.379,0,1,0-46.485,0c-37.914,14-45.247,53.1-27.222,77.6A48.154,48.154,0,0,0,361.789,305.7c7.795,5.238,20.312,2.964,19.689-10.072v-6.784c0-6.444-2.835-8.871-7.123-8.871h-.871c-2.963,0-4.348-4.1-2.125-6.286l23.216-19.773c3.473-3.415,8.065-3.52,11.645,0l23.216,19.773c2.224,2.188.838,6.286-2.125,6.286h-.87c-4.289,0-7.123,2.426-7.123,8.871,0,11.448-.056,6.555.189,8.683,1.481,12.851,13.874,11.71,19.671,8.173a42.73,42.73,0,0,0,11.975-11.448c18.023-24.5,10.284-63.6-27.63-77.6" transform="translate(0 0)" fill="#0336ff"/>
      <path id="Rectangle_1" data-name="Rectangle 1" d="M3.3,0h7.659a3.3,3.3,0,0,1,3.3,3.3v7.658a3.3,3.3,0,0,1-3.3,3.3H3.3a3.3,3.3,0,0,1-3.3-3.3V3.3A3.3,3.3,0,0,1,3.3,0Z" transform="translate(393.303 285.278)" fill="#0336ff"/>
    </g>
    <path id="Path_35452" data-name="Path 35452" d="M-46.267-19.084h14.456a2.876,2.876,0,0,1,1.222.2.986.986,0,0,1,.52.611,3.758,3.758,0,0,1,.13,1.092,3.622,3.622,0,0,1-.13,1.079.892.892,0,0,1-.442.559,3.029,3.029,0,0,1-1.326.234H-36.8V-2.236a7.206,7.206,0,0,1-.039.884,2.11,2.11,0,0,1-.234.663,1.1,1.1,0,0,1-.689.533,4.432,4.432,0,0,1-1.3.156,4.3,4.3,0,0,1-1.287-.156,1.1,1.1,0,0,1-.676-.533,2.1,2.1,0,0,1-.234-.676,7.554,7.554,0,0,1-.039-.9V-15.314h-4.992a2.876,2.876,0,0,1-1.222-.195.986.986,0,0,1-.52-.611,3.758,3.758,0,0,1-.13-1.092,3.622,3.622,0,0,1,.13-1.079.892.892,0,0,1,.442-.559A3.029,3.029,0,0,1-46.267-19.084Zm31.9,5.486Q-12.7-12.87-12.7-11.8a4.215,4.215,0,0,1-.416,1.417q-.416.975-.7,1.7l-2.86,6.968A2.684,2.684,0,0,1-17.979-.1a2.34,2.34,0,0,1-.988.182,1.816,1.816,0,0,1-1.157-.455,2.336,2.336,0,0,1-.741-.923l-.208-.442q-.208-.52-1.534-4.056-.26.624-.767,2.041t-.65,1.768q-.143.351-.182.468a2.9,2.9,0,0,1-.221.429,2.668,2.668,0,0,1-.416.546,1.967,1.967,0,0,1-1.43.624,2.041,2.041,0,0,1-1.352-.455,2.369,2.369,0,0,1-.728-.923l-3.926-9.568a4.352,4.352,0,0,1-.26-1.014q0-1.04,1.482-1.638a3.809,3.809,0,0,1,1.352-.338,1.474,1.474,0,0,1,.845.221,1.48,1.48,0,0,1,.455.442,2.381,2.381,0,0,1,.208.455q.442,1.04,1.846,4.888l1.534-4.212a2.032,2.032,0,0,1,.572-.91,2.193,2.193,0,0,1,1.534-.754,2.18,2.18,0,0,1,1.339.416,2.486,2.486,0,0,1,.767.832l.208.442q1.3,3.64,1.534,4.16l1.586-4.316q.624-1.664,1.872-1.664A2.421,2.421,0,0,1-14.365-13.6Zm3.094,2.184a7.553,7.553,0,0,1,.039-.9A2.41,2.41,0,0,1-11.011-13q.364-.676,2.028-.676a2.749,2.749,0,0,1,1.768.442,1.433,1.433,0,0,1,.468,1.118q.026.26.026.754v9.1a7.553,7.553,0,0,1-.039.9,2.083,2.083,0,0,1-.247.689Q-7.345,0-9.009,0q-1.638,0-2-.7a2.43,2.43,0,0,1-.221-.676,7.506,7.506,0,0,1-.039-.91Zm4.277-4.823a1.1,1.1,0,0,1-.689.533A4.488,4.488,0,0,1-9-15.548a4.488,4.488,0,0,1-1.313-.156A1.091,1.091,0,0,1-11-16.25a2.23,2.23,0,0,1-.234-.689,7.553,7.553,0,0,1-.039-.9,7.553,7.553,0,0,1,.039-.9,2.124,2.124,0,0,1,.221-.663q.364-.7,2.028-.7,1.638,0,1.976.7a2.083,2.083,0,0,1,.247.689,7.553,7.553,0,0,1,.039.9,7.553,7.553,0,0,1-.039.9A2.1,2.1,0,0,1-6.994-16.237ZM4.55-19.409a1.1,1.1,0,0,1,.689-.533A4.488,4.488,0,0,1,6.552-20.1a4.488,4.488,0,0,1,1.313.156,1.091,1.091,0,0,1,.689.546,2.231,2.231,0,0,1,.234.689,7.554,7.554,0,0,1,.039.9V-2.288a7.553,7.553,0,0,1-.039.9,1.849,1.849,0,0,1-.247.663q-.39.7-2.2.7T4.329-1.3A3.829,3.829,0,0,1,1.287-.052,5.768,5.768,0,0,1-2.977-2.093,6.719,6.719,0,0,1-4.9-6.851a6.74,6.74,0,0,1,1.937-4.771,5.77,5.77,0,0,1,4.251-2.054,3.651,3.651,0,0,1,2.99,1.3v-5.46a7.553,7.553,0,0,1,.039-.9A2.1,2.1,0,0,1,4.55-19.409ZM.325-5.278a2.19,2.19,0,0,0,1.638.7,2.068,2.068,0,0,0,1.6-.7A2.253,2.253,0,0,0,4.2-6.825,2.4,2.4,0,0,0,3.588-8.4a2.043,2.043,0,0,0-1.651-.728,2.1,2.1,0,0,0-1.664.715A2.34,2.34,0,0,0-.351-6.838,2.2,2.2,0,0,0,.325-5.278ZM20.1-19.409a1.1,1.1,0,0,1,.689-.533A4.488,4.488,0,0,1,22.1-20.1a4.488,4.488,0,0,1,1.313.156,1.091,1.091,0,0,1,.689.546,2.231,2.231,0,0,1,.234.689,7.554,7.554,0,0,1,.039.9V-2.288a7.553,7.553,0,0,1-.039.9,1.849,1.849,0,0,1-.247.663q-.39.7-2.2.7T19.877-1.3A3.829,3.829,0,0,1,16.835-.052a5.768,5.768,0,0,1-4.264-2.041,6.719,6.719,0,0,1-1.924-4.758,6.74,6.74,0,0,1,1.937-4.771,5.77,5.77,0,0,1,4.251-2.054,3.651,3.651,0,0,1,2.99,1.3v-5.46a7.553,7.553,0,0,1,.039-.9A2.1,2.1,0,0,1,20.1-19.409ZM15.873-5.278a2.19,2.19,0,0,0,1.638.7,2.068,2.068,0,0,0,1.6-.7,2.253,2.253,0,0,0,.637-1.547A2.4,2.4,0,0,0,19.136-8.4a2.043,2.043,0,0,0-1.651-.728,2.1,2.1,0,0,0-1.664.715A2.34,2.34,0,0,0,15.2-6.838,2.2,2.2,0,0,0,15.873-5.278ZM26.455-17.862a7.553,7.553,0,0,1,.039-.9,2.41,2.41,0,0,1,.221-.689q.364-.7,2.028-.7,1.586,0,1.976.7a2.075,2.075,0,0,1,.247.7,7.91,7.91,0,0,1,.039.91V-5.8a2.72,2.72,0,0,0,.156,1.183q.156.247.689.247a4.163,4.163,0,0,1,.715.039,1.3,1.3,0,0,1,.442.221q.52.338.52,1.846,0,1.638-.52,2-.676.468-3.224.156a3.246,3.246,0,0,1-2.6-1.326,8.534,8.534,0,0,1-.728-4.056Zm21.45,9.373a3.158,3.158,0,0,1-.793,2.366,2.473,2.473,0,0,1-1.755.767H39.2a1.425,1.425,0,0,0,.858,1.222,3.413,3.413,0,0,0,1.716.494,7.157,7.157,0,0,0,2.366-.312l.286-.1a2.622,2.622,0,0,1,1.04-.286q.832,0,1.43,1.17a2.869,2.869,0,0,1,.338,1.2q0,2.314-5.538,2.314a8.356,8.356,0,0,1-3.419-.663A5.807,5.807,0,0,1,35.945-2.08a7.476,7.476,0,0,1-1.638-4.706,6.8,6.8,0,0,1,2.119-5.239,7.487,7.487,0,0,1,5.291-1.963,5.909,5.909,0,0,1,5.3,2.548A5.285,5.285,0,0,1,47.905-8.489Zm-5.486.767q.988,0,.988-.832a1.171,1.171,0,0,0-.455-.962,2.037,2.037,0,0,0-1.3-.364,2.628,2.628,0,0,0-1.677.689,1.934,1.934,0,0,0-.832,1.469Z" transform="translate(187.5 510)" fill="#0336ff"/>
  </g>
</svg>
