<svg xmlns="http://www.w3.org/2000/svg" width="40" height="40.001" viewBox="0 0 40 40.001">
  <g id="Group_19632" data-name="Group 19632" transform="translate(-40 -745)">
    <rect id="Mask" width="40" height="40.001" rx="20" transform="translate(40 745)" fill="#eefff9"/>
    <g id="Icon_feather-arrow-down" data-name="Icon feather-arrow-down" transform="translate(46.5 750.501)">
      <path id="Path_35422" data-name="Path 35422" d="M18,22a1.5,1.5,0,0,1-1.5-1.5V7.5a1.5,1.5,0,0,1,3,0v13A1.5,1.5,0,0,1,18,22Z" transform="translate(-4 0)" fill="#01e08f"/>
      <path id="Path_35423" data-name="Path 35423" d="M14,26a1.5,1.5,0,0,1-1.061-.439l-6.5-6.5a1.5,1.5,0,0,1,2.121-2.121L14,22.379l5.439-5.439a1.5,1.5,0,0,1,2.121,2.121l-6.5,6.5A1.5,1.5,0,0,1,14,26Z" transform="translate(0 -4)" fill="#01e08f"/>
    </g>
  </g>
</svg>
