<?xml version="1.0" standalone="no"?>
<!DOCTYPE svg PUBLIC "-//W3C//DTD SVG 20010904//EN"
 "http://www.w3.org/TR/2001/REC-SVG-20010904/DTD/svg10.dtd">
<svg version="1.0" xmlns="http://www.w3.org/2000/svg"
 width="33.000000pt" height="32.000000pt" viewBox="0 0 33.000000 32.000000"
 preserveAspectRatio="xMidYMid meet">

<g transform="translate(0.000000,32.000000) scale(0.100000,-0.100000)"
fill="#000000" stroke="none">
<path d="M62 268 c-5 -7 -12 -61 -14 -120 l-4 -108 121 0 121 0 -4 108 c-2 59
-9 113 -14 120 -7 8 -41 12 -103 12 -62 0 -96 -4 -103 -12z m188 -108 c0 -73
-3 -90 -15 -90 -11 0 -15 12 -15 50 0 37 -5 55 -20 70 -44 44 -90 8 -90 -70 0
-38 -4 -50 -15 -50 -12 0 -15 17 -15 90 l0 90 85 0 85 0 0 -90z m-60 -41 c0
-46 -2 -49 -25 -49 -23 0 -25 4 -25 43 0 46 14 69 36 60 9 -3 14 -22 14 -54z"/>
</g>
</svg>
