<svg id="Group_18740" data-name="Group 18740" xmlns="http://www.w3.org/2000/svg" width="30" height="30" viewBox="0 0 30 30">
  <rect id="Rectangle_1720" data-name="Rectangle 1720" width="30" height="30" fill="none"/>
  <g id="Group_18685" data-name="Group 18685" transform="translate(3 3)">
    <path id="Path_2397" data-name="Path 2397" d="M0,0H24V24H0Z" fill="none"/>
    <path id="Path_2398" data-name="Path 2398" d="M10,5a2,2,0,0,1,4,0,7,7,0,0,1,4,6v3a4,4,0,0,0,2,3H4a4,4,0,0,0,2-3V11a7,7,0,0,1,4-6" fill="none" stroke="#0336ff" stroke-linecap="round" stroke-linejoin="round" stroke-width="1.5"/>
    <path id="Path_2399" data-name="Path 2399" d="M9,17v1a3,3,0,0,0,6,0V17" fill="none" stroke="#0336ff" stroke-linecap="round" stroke-linejoin="round" stroke-width="1.5"/>
  </g>
</svg>
