<svg xmlns="http://www.w3.org/2000/svg" width="17.5" height="17.5" viewBox="0 0 17.5 17.5">
  <g id="Group_19619" data-name="Group 19619" transform="translate(-275.25 -58.25)">
    <path id="Path_35429" data-name="Path 35429" d="M16.733,20.617h-9.6A2.887,2.887,0,0,1,4.25,17.733v-9.6A2.887,2.887,0,0,1,7.133,5.25h3.2a.75.75,0,0,1,0,1.5h-3.2A1.385,1.385,0,0,0,5.75,8.133v9.6a1.385,1.385,0,0,0,1.383,1.383h9.6a1.385,1.385,0,0,0,1.383-1.383v-3.2a.75.75,0,0,1,1.5,0v3.2A2.887,2.887,0,0,1,16.733,20.617Z" transform="translate(271 55.133)" fill="#0336ff"/>
    <path id="Ellipse_3439" data-name="Ellipse 3439" d="M3.2-.75A3.95,3.95,0,1,1-.75,3.2,3.954,3.954,0,0,1,3.2-.75Zm0,6.4A2.45,2.45,0,1,0,.75,3.2,2.453,2.453,0,0,0,3.2,5.65Z" transform="translate(285.6 59)" fill="#0336ff"/>
  </g>
</svg>
