<svg xmlns="http://www.w3.org/2000/svg" width="26.928" height="21.5" viewBox="0 0 26.928 21.5">
  <g id="Group_19291" data-name="Group 19291" transform="translate(2560.25 -60.75)">
    <path id="Ellipse_3417" data-name="Ellipse 3417" d="M4.071-1.25A5.321,5.321,0,1,1-1.25,4.071,5.327,5.327,0,0,1,4.071-1.25Zm0,8.143A2.821,2.821,0,1,0,1.25,4.071,2.825,2.825,0,0,0,4.071,6.893Z" transform="translate(-2548.143 67.429)" fill="#0336ff"/>
    <path id="Path_2575" data-name="Path 2575" d="M11.074,18.393q-.1,0-.2,0A5.321,5.321,0,1,1,14.62,9.107a1.25,1.25,0,0,1-1.668,1.863,2.821,2.821,0,1,0,0,4.2,1.25,1.25,0,0,1,1.668,1.863A5.294,5.294,0,0,1,11.074,18.393Z" transform="translate(-2560.572 58.429)" fill="#0336ff"/>
    <path id="Rectangle_6799" data-name="Rectangle 6799" d="M2-1.25H22.429A3.254,3.254,0,0,1,25.679,2V17a3.254,3.254,0,0,1-3.25,3.25H2A3.254,3.254,0,0,1-1.25,17V2A3.254,3.254,0,0,1,2-1.25Zm20.429,19a.751.751,0,0,0,.75-.75V2a.751.751,0,0,0-.75-.75H2A.751.751,0,0,0,1.25,2V17a.751.751,0,0,0,.75.75Z" transform="translate(-2559 62)" fill="#0336ff"/>
  </g>
</svg>
