<svg xmlns="http://www.w3.org/2000/svg" width="59.998" height="60" viewBox="0 0 59.998 60">
  <g id="Group_19449" data-name="Group 19449" transform="translate(-30 -142)">
    <g id="Group_19442" data-name="Group 19442">
      <rect id="Mask" width="59.998" height="60" rx="29.999" transform="translate(30 142)" fill="#3b7bbf"/>
    </g>
    <path id="Icon_metro-paypal" data-name="Icon metro-paypal" d="M14.777,18.011h2.559c5.559,0,8.713-2.5,9.717-7.65.032-.17.062-.333.086-.5a8.144,8.144,0,0,0,.1-.962c.009-.207.015-.329.014-.443a4.078,4.078,0,0,0-.333-1.6,5.512,5.512,0,0,0-.946-1.416,8.344,8.344,0,0,0-6.346-2.355H10.906A1.248,1.248,0,0,0,9.674,4.138L8.1,14.274,6.143,26.9a.75.75,0,0,0,.74.865h4.276l1.31-7.778a2.33,2.33,0,0,1,2.309-1.974Zm14.041-7.075c-1.222,5.816-5.178,8.9-11.483,8.9H14.777a.511.511,0,0,0-.506.435l-1.7,10.575h4.484a1.091,1.091,0,0,0,1.078-.921l.045-.231.856-5.42.056-.3a1.091,1.091,0,0,1,1.078-.921h.679c4.4,0,7.837-1.786,8.843-6.95.413-2.129.2-3.909-.867-5.17Z" transform="translate(41.991 155.033)" fill="#fff"/>
  </g>
</svg>
