<svg id="Group_19624" data-name="Group 19624" xmlns="http://www.w3.org/2000/svg" width="24" height="24" viewBox="0 0 24 24">
  <path id="Path_35435" data-name="Path 35435" d="M0,0H24V24H0Z" fill="none"/>
  <path id="Ellipse_3440" data-name="Ellipse 3440" d="M4-.75A4.75,4.75,0,1,1-.75,4,4.755,4.755,0,0,1,4-.75Zm0,8A3.25,3.25,0,1,0,.75,4,3.254,3.254,0,0,0,4,7.25Z" transform="translate(5 3)" fill="#fff"/>
  <path id="Path_35436" data-name="Path 35436" d="M15,21.75a.75.75,0,0,1-.75-.75V19A3.254,3.254,0,0,0,11,15.75H7A3.254,3.254,0,0,0,3.75,19v2a.75.75,0,0,1-1.5,0V19A4.755,4.755,0,0,1,7,14.25h4A4.755,4.755,0,0,1,15.75,19v2A.75.75,0,0,1,15,21.75Z" fill="#fff"/>
  <path id="Path_35437" data-name="Path 35437" d="M16,11.63a.75.75,0,0,1-.185-1.477,3.25,3.25,0,0,0,0-6.3A.75.75,0,0,1,16.186,2.4a4.75,4.75,0,0,1,0,9.2A.752.752,0,0,1,16,11.63Z" fill="#fff"/>
  <path id="Path_35438" data-name="Path 35438" d="M21,21.75a.75.75,0,0,1-.75-.75V19a3.252,3.252,0,0,0-2.437-3.124.75.75,0,1,1,.375-1.452A4.754,4.754,0,0,1,21.75,19v2A.75.75,0,0,1,21,21.75Z" fill="#fff"/>
</svg>
