<svg id="Group_19623" data-name="Group 19623" xmlns="http://www.w3.org/2000/svg" width="24" height="24" viewBox="0 0 24 24">
  <path id="Path_35432" data-name="Path 35432" d="M0,0H24V24H0Z" fill="none"/>
  <path id="Path_35433" data-name="Path 35433" d="M3,17.75a.75.75,0,0,1-.53-1.28l6-6a.75.75,0,0,1,1.061,0L13,13.939l7.47-7.47A.75.75,0,1,1,21.53,7.53l-8,8a.75.75,0,0,1-1.061,0L9,12.061,3.53,17.53A.748.748,0,0,1,3,17.75Z" fill="#0336ff"/>
  <path id="Path_35434" data-name="Path 35434" d="M21,14.75a.75.75,0,0,1-.75-.75V7.75H14a.75.75,0,0,1,0-1.5h7a.75.75,0,0,1,.75.75v7A.75.75,0,0,1,21,14.75Z" fill="#0336ff"/>
</svg>
