<svg xmlns="http://www.w3.org/2000/svg" width="59.998" height="60" viewBox="0 0 59.998 60">
  <g id="Group_19442" data-name="Group 19442" transform="translate(-30 -142)">
    <rect id="Mask" width="59.998" height="60" rx="29.999" transform="translate(30 142)" fill="#0336ff"/>
    <g id="Group_1" data-name="Group 1" transform="translate(-294.036 -15)">
      <path id="Path_1" data-name="Path 1" d="M358.716,181.828a6.245,6.245,0,1,0-10.23,0c-8.344,3.08-9.958,11.685-5.991,17.077a10.6,10.6,0,0,0,2.635,2.52c1.715,1.153,4.47.652,4.333-2.217v-1.493c0-1.418-.624-1.952-1.567-1.952H347.7a.806.806,0,0,1-.468-1.383l5.109-4.352a1.721,1.721,0,0,1,2.563,0l5.109,4.352a.806.806,0,0,1-.468,1.383h-.191c-.944,0-1.568.534-1.568,1.952,0,2.519-.012,1.443.042,1.911.326,2.828,3.053,2.577,4.329,1.8a9.4,9.4,0,0,0,2.635-2.52c3.966-5.392,2.263-14-6.081-17.077" transform="translate(0 0)" fill="#fff"/>
      <path id="Rectangle_1" data-name="Rectangle 1" d="M1.568,0h0A1.568,1.568,0,0,1,3.137,1.568v0A1.569,1.569,0,0,1,1.568,3.137h0A1.568,1.568,0,0,1,0,1.569v0A1.568,1.568,0,0,1,1.568,0Z" transform="translate(352.066 196.93)" fill="#fff"/>
    </g>
  </g>
</svg>
