<svg xmlns="http://www.w3.org/2000/svg" width="20.21" height="20.21" viewBox="0 0 20.21 20.21">
  <defs>
    <clipPath id="clip-path">
      <path id="Shape" d="M20.21,20.21H0V16.42c0-3.317,6.579-5.053,10.105-5.053S20.21,13.1,20.21,16.42v3.789Zm-10.1-6.44c-3.757,0-7.706,1.841-7.706,2.653v1.39H17.811v-1.39C17.811,15.61,13.863,13.769,10.106,13.769Zm0-3.664a5.053,5.053,0,1,1,5.053-5.053A5.058,5.058,0,0,1,10.105,10.105Zm0-7.578a2.526,2.526,0,1,0,2.526,2.526A2.529,2.529,0,0,0,10.105,2.527Z" transform="translate(1.263 1.262)" fill="#0336ff"/>
    </clipPath>
  </defs>
  <g id="Icon_User" data-name="Icon/User" transform="translate(-1.263 -1.262)">
    <path id="Shape-2" data-name="Shape" d="M20.21,20.21H0V16.42c0-3.317,6.579-5.053,10.105-5.053S20.21,13.1,20.21,16.42v3.789Zm-10.1-6.44c-3.757,0-7.706,1.841-7.706,2.653v1.39H17.811v-1.39C17.811,15.61,13.863,13.769,10.106,13.769Zm0-3.664a5.053,5.053,0,1,1,5.053-5.053A5.058,5.058,0,0,1,10.105,10.105Zm0-7.578a2.526,2.526,0,1,0,2.526,2.526A2.529,2.529,0,0,0,10.105,2.527Z" transform="translate(1.263 1.262)" fill="#0336ff"/>
    <path id="Shape-3" data-name="Shape" d="M20.21,20.21H0V16.42c0-3.317,6.579-5.053,10.105-5.053S20.21,13.1,20.21,16.42v3.789Zm-10.1-6.44c-3.757,0-7.706,1.841-7.706,2.653v1.39H17.811v-1.39C17.811,15.61,13.863,13.769,10.106,13.769Zm0-3.664a5.053,5.053,0,1,1,5.053-5.053A5.058,5.058,0,0,1,10.105,10.105Zm0-7.578a2.526,2.526,0,1,0,2.526,2.526A2.529,2.529,0,0,0,10.105,2.527Z" transform="translate(1.263 1.262)" fill="#0336ff"/>
  </g>
</svg>
