<svg xmlns="http://www.w3.org/2000/svg" width="24.501" height="23.5" viewBox="0 0 24.501 23.5">
  <g id="Group_19520" data-name="Group 19520" transform="translate(1546.251 -1807.25)">
    <path id="Path" d="M11-1.25c6.755,0,12.25,5.023,12.25,11.2s-5.5,11.2-12.25,11.2A13.173,13.173,0,0,1,6.6,20.4a21.309,21.309,0,0,1-6.01,1.833,1.6,1.6,0,0,1-.228.016,1.606,1.606,0,0,1-1.449-.9,1.617,1.617,0,0,1,.3-1.86c.22-.221.932-1.13,1.237-3.835A10.44,10.44,0,0,1-1.25,9.947C-1.25,3.773,4.245-1.25,11-1.25Zm0,19.895c5.376,0,9.75-3.9,9.75-8.7S16.376,1.25,11,1.25s-9.75,3.9-9.75,8.7A7.991,7.991,0,0,0,2.766,14.6l.269.377-.041.461a14.626,14.626,0,0,1-.838,3.925,15.1,15.1,0,0,0,3.729-1.417l.529-.307.567.23A10.646,10.646,0,0,0,11,18.645Z" transform="translate(-1545 1808.5)" fill="#0336ff"/>
    <path id="Path_35418" data-name="Path 35418" d="M1.5,0A1.5,1.5,0,1,1,0,1.5,1.5,1.5,0,0,1,1.5,0Z" transform="translate(-1540 1817)" fill="#0336ff"/>
    <path id="Path_35419" data-name="Path 35419" d="M1.5,0A1.5,1.5,0,1,1,0,1.5,1.5,1.5,0,0,1,1.5,0Z" transform="translate(-1535 1817)" fill="#0336ff"/>
    <path id="Path_35420" data-name="Path 35420" d="M1.5,0A1.5,1.5,0,1,1,0,1.5,1.5,1.5,0,0,1,1.5,0Z" transform="translate(-1530 1817)" fill="#0336ff"/>
  </g>
</svg>
