<svg xmlns="http://www.w3.org/2000/svg" width="274.963" height="209.943" viewBox="0 0 274.963 209.943">
  <g id="illustration_running" data-name="illustration/running" transform="translate(-0.037 -0.105)">
    <g id="bg" transform="translate(0 0.026)">
      <path id="Path" d="M41.58,206.076a56.306,56.306,0,0,1-23.2-13.278C4.415,179.3,2.091,161.857.763,150.752-3.885,111.672,13.1,69.83,40.694,42.242,60.134,22.812,82.009,13.254,90.383,9.958A162,162,0,0,1,116.96,2.223c5.459-1.031,81.3-14.052,125.4,37.128,23.83,27.625,26.227,59.872,28.219,86.742,1.642,22.155-1.66,34.328-5.164,42.726a81.794,81.794,0,0,1-26.19,33.334" transform="translate(0.897 0.079)" fill="#e0e9f8"/>
      <g id="Group" transform="translate(5.349 109.578)">
        <g id="Group-2" data-name="Group" opacity="0.5">
          <path id="Path-2" data-name="Path" d="M27,83.482C12.432,82.58.093,70.13,0,59.633c-.074-8.674,8.244-10.921,8.521-21.86.24-9.448-5.865-11.547-4.832-19.6C4.777,9.724,13.059.037,23.019,0c11.454-.018,19.237,12.763,19.9,23,.443,6.961-3.818,7.919-3.689,14.475C39.471,50.885,56.236,54.716,56,64.734,55.794,73.942,41.352,84.366,27,83.482Z" transform="translate(0.129 0.11)" fill="#99b9ee"/>
        </g>
        <rect id="Rectangle" width="0.848" height="76.355" transform="translate(26.154 14.328)" fill="#99b9ee"/>
        <path id="Path-3" data-name="Path" d="M8.1,11.363C1.014,10.884.037.516,0,.074L.848,0c0,.092.959,10.092,7.3,10.516Z" transform="translate(18.37 29.466)" fill="#99b9ee"/>
        <path id="Path-4" data-name="Path" d="M5.791,8.085C.719,7.753.037.387,0,.074L.848,0c0,.074.664,6.961,5,7.256Z" transform="translate(20.676 59.43)" fill="#99b9ee"/>
        <path id="Path-5" data-name="Path" d="M.037,7.827,0,6.98C5.939,6.685,6.806.074,6.806,0l.848.092C7.636.184,6.677,7.5.037,7.827Z" transform="translate(26.172 48.62)" fill="#99b9ee"/>
        <path id="Path-6" data-name="Path" d="M.037,5.8,0,4.954C4.187,4.751,4.8.2,4.814,0l.848.11C5.644.166,4.943,5.58.037,5.8Z" transform="translate(26.449 70.222)" fill="#99b9ee"/>
      </g>
      <g id="Group-3" data-name="Group" transform="translate(47.586 152.673)">
        <g id="Group-4" data-name="Group" opacity="0.5">
          <path id="Path-7" data-name="Path" d="M13.464,41.621C6.2,41.179.037,34.973,0,29.724c-.037-4.328,4.113-5.451,4.261-10.9.129-4.715-2.933-5.764-2.416-9.761C2.38,4.844,6.511.018,11.491,0c5.7-.018,9.591,6.354,9.923,11.474.221,3.462-1.9,3.941-1.844,7.219.111,6.685,8.484,8.6,8.355,13.591C27.814,36.87,20.621,42.063,13.464,41.621Z" transform="translate(0.018 0.055)" fill="#99b9ee"/>
        </g>
        <rect id="Rectangle-2" data-name="Rectangle" width="0.424" height="38.067" transform="translate(13.003 7.127)" fill="#99b9ee"/>
        <path id="Path-8" data-name="Path" d="M4.039,5.672C.516,5.433.018.258,0,.037L.424,0c0,.055.48,5.028,3.652,5.249Z" transform="translate(9.111 14.678)" fill="#99b9ee"/>
        <path id="Path-9" data-name="Path" d="M2.9,4.033C.369,3.867.018.184,0,.037L.424,0c0,.037.332,3.462,2.49,3.61Z" transform="translate(10.255 29.632)" fill="#99b9ee"/>
        <path id="Path-10" data-name="Path" d="M.018,3.9,0,3.481C2.951,3.333,3.394.037,3.394,0l.424.055C3.818.092,3.338,3.739.018,3.9Z" transform="translate(13.003 24.236)" fill="#99b9ee"/>
        <path id="Path-11" data-name="Path" d="M.018,2.891,0,2.468C2.084,2.376,2.4.092,2.4,0l.424.055C2.8.092,2.453,2.781.018,2.891Z" transform="translate(13.151 35.01)" fill="#99b9ee"/>
      </g>
      <ellipse id="Oval" cx="137.482" cy="6.427" rx="137.482" ry="6.427" transform="translate(0.037 197.168)" fill="#c5d6f1"/>
      <rect id="Rectangle-3" data-name="Rectangle" width="65.476" height="3.094" transform="translate(46.491 61.901)" fill="#c5d6f1"/>
      <rect id="Rectangle-4" data-name="Rectangle" width="65.476" height="3.094" transform="translate(11.024 81.978)" fill="#c5d6f1"/>
      <rect id="Rectangle-5" data-name="Rectangle" width="65.476" height="3.094" transform="translate(41.973 98.918)" fill="#c5d6f1"/>
    </g>
    <g id="Runner" transform="translate(74.917 65.781)">
      <path id="Path-12" data-name="Path" d="M1.029,18.636,0,28.436c.032-.285,3.247-1.106,3.5-1.2,3.753-1.249,7.523-2.4,11.308-3.509C28.887,19.584,42.9,15.949,56.285,9.816a3.944,3.944,0,0,0,1.457-.948C58.851,7.6,57.378.332,58.217,0,39.561,7.524,20.256,12.74,1.029,18.636Z" transform="translate(83.414 32.024)" fill="#1e32fa"/>
      <path id="Path-13" data-name="Path" d="M31.009,1.89a39.332,39.332,0,0,1-1.615,4.837,5.917,5.917,0,0,1-.238.6c-.016.063-.048.111-.048.126s-.016.016-.016.032c-1.71,4.284-8.33,21.2-12.59,21.039C11.909,28.35,0,11.042,0,11.042L5.416,7.28s9.043,13.309,10.532,14.542c1.457,1.185,9.17-15.19,9.6-16.123-.412-.964-1.536-3.7-1.156-4.173.443-.585.776.379.776.379A1.289,1.289,0,0,1,26,.546,13.958,13.958,0,0,1,27.62.214a1.685,1.685,0,0,1,1.742.063C29.98.736,31.009,1.242,31.009,1.89Z" transform="translate(81.466 18.849)" fill="#b97a59"/>
      <path id="Path-14" data-name="Path" d="M0,0V13.91L4.5,4.868s.333.063.934.19A40.531,40.531,0,0,1,4.624.253C1.805.095,0,0,0,0Z" transform="translate(18.735 89.465)" fill="#0b4870"/>
      <path id="Path-15" data-name="Path" d="M0,0C.333,1.6.285,3.351.808,4.805c.871.174,2.3.443,4.1.775-.681-1.8-1.33-3.6-1.837-5.437C1.948.095.919.047,0,0Z" transform="translate(23.36 89.702)" fill="#fff"/>
      <path id="Path-16" data-name="Path" d="M42.9,3.493C39.925,2.15,36.948,1.359,34.05,0c-2.281,5.406-4.482,9.642-5.971,10.243-3.057,1.265-18.514.806-28.079.379A53.556,53.556,0,0,0,1.837,16.06c9.059,1.644,27.7,4.679,32.783,2.75,2.566-.98,7.412-7.587,11.846-14.368A10.956,10.956,0,0,1,42.9,3.493Z" transform="translate(26.416 79.207)" fill="#b97a59"/>
      <path id="Path-17" data-name="Path" d="M23.265,0H9.566S4.624,15.68,0,26.6c2.9,1.359,5.876,2.15,8.853,3.493a11.29,11.29,0,0,0,3.563.964C17.484,23.3,22.029,15.3,22.029,15.3Z" transform="translate(60.466 52.604)" fill="#0b4870"/>
      <path id="Path-18" data-name="Path" d="M20.24.933,3.484,0S-1.426,6.022.411,11.128c1.425,3.936,9.93,10.085,16.075,17.94a98.361,98.361,0,0,0,12.337-3.193C25.165,15.238,20.24.933,20.24.933Z" transform="translate(63.903 55.149)" fill="#0e538c"/>
      <path id="Path-19" data-name="Path" d="M.95,5.532A45.366,45.366,0,0,0,5.369,2.7C5.21,2.007,5,1.091,4.767,0A36.719,36.719,0,0,1,0,3.082C.333,3.952.649,4.774.95,5.532Z" transform="translate(100.138 126.611)" fill="#fff"/>
      <path id="Path-20" data-name="Path" d="M12.337,0A101.166,101.166,0,0,1,0,3.193a35.672,35.672,0,0,1,4.561,7.35c2.613,5.833,10.8,26.824,15.172,38.11A37.827,37.827,0,0,0,24.5,45.57c-2.043-9.073-6.921-30.444-8.679-35.517C15.14,8.156,13.842,4.394,12.337,0Z" transform="translate(80.405 81.025)" fill="#b97a59"/>
      <path id="Path-21" data-name="Path" d="M4.735,1.407S4.624.9,4.419,0A41.843,41.843,0,0,1,0,2.829C1.156,5.8,1.869,7.65,1.869,7.65L14.95,1.628Z" transform="translate(101.072 129.314)" fill="#0b4870"/>
      <path id="Path-22" data-name="Path" d="M1.16,5.074l.76-1.707A20.58,20.58,0,0,1,.179,0,6.7,6.7,0,0,0,1.16,5.074Z" transform="translate(85.484 15.38)" fill="#b97a59"/>
      <path id="Path-23" data-name="Path" d="M4.086,0,0,15.506l7.158,4.9,1.887-4.225c-.093-.156-.168-.287-.251-.449a8.228,8.228,0,0,1-.8-2.3,6.1,6.1,0,0,1-.083-1.309,3.856,3.856,0,0,1,.148-1A19.414,19.414,0,0,0,9.8,14.495h.016C16.154,19.189,16.36,1.438,16.36,1.438Z" transform="translate(77.602 4.252)" fill="#b97a59"/>
      <path id="Path-24" data-name="Path" d="M12.237,0S20.2,4.489,22.246,7.556s2.455,8.156,2.249,11.428-1.33,4.394-2.344,6.639c-1.029,2.245-2.55,13.562-2.55,13.562S.9,37.651.074,37.446s5.527-19.584,4.7-25.1S12.237,0,12.237,0Z" transform="translate(65.571 19.553)" fill="#fdb32a"/>
      <path id="Path-25" data-name="Path" d="M1.947,31.541c12.084.063,21.253-11.017,37.2-16.328C50.8,11.34,59.246,10.534,71.44,11.94c2.692.3,5.321.759,7.982,1.249,2.122.4,4.229.822,6.319,1.3.839.19,1.79.7,2.407.142C89.7,13.268,89.384,10.2,89.162,8.4a6.84,6.84,0,0,0-3.738-5.69A24.4,24.4,0,0,0,74.972.244C51.375-.926,36.5,1.54.728,20.523-1.236,21.551,1.329,31.541,1.947,31.541Z" transform="translate(0.128 39.937)" fill="#1e32fa"/>
      <path id="Path-26" data-name="Path" d="M23.647,27.946a16.149,16.149,0,0,1-.206,1.628,1.676,1.676,0,0,1-.618,1.628c-.618.411-1.425,1.217-2.043,1.027a41.627,41.627,0,0,1-4.086-3.082c-.269-.221-.459-.379-.57-.458a.351.351,0,0,0-.079-.063C12.53,25.622-1.391,13.957.113,9.99,1.744,5.706,21.984,0,21.984,0l1.837,6.323S8.285,10.606,6.654,11.634c-1.6,1,11.482,13.53,12.226,14.242,1.061-.079,3.991-.269,4.324.237.412.616-.618.616-.618.616A1.281,1.281,0,0,1,23.647,27.946Z" transform="translate(46.384 23.441)" fill="#b97a59"/>
      <path id="Path-27" data-name="Path" d="M.57.458h0C.443.364.253.205,0,0,.111.079.317.237.57.458Z" transform="translate(62.525 52.13)" fill="#ffe3ca"/>
      <path id="Path-28" data-name="Path" d="M0,1.1,1.425,9.869s10.041-.743,9-7.745C9.8-1.955,0,1.1,0,1.1Z" transform="translate(67.181 22.124)" fill="#fdb32a"/>
      <path id="Path-29" data-name="Path" d="M.253,0C.19.142.111.348,0,.6.048.458.127.253.238,0Z" transform="translate(110.638 25.575)" fill="#ffe3ca"/>
      <path id="Path-30" data-name="Path" d="M.087.063A.049.049,0,0,0,.071.095h0C.071.079.071.079.087.063Z" transform="translate(110.503 26.255)" fill="#ffe3ca"/>
      <path id="Path-31" data-name="Path" d="M47.749,11.139l.824-.205A5.771,5.771,0,0,0,49.6,8.894s6.129,1.2,7.76-1.233,1.631-5.9-1.029-6.512-4.5,1.217-6.541.205c-2.043-1.027-3.88-2.45-7.158,0S40.59,5.227,35.887,4.627s-8.695-2.75-12.068-.205C21.982,5.812,20.747,8.7,17.072,7.883s-7.76,2.861-9,6.528C6.857,18.078,0,14.711,0,22.267c0,2.26,7.76,9.595,17.167,4.9s9.407-3.066,12.068-2.861,8.79.616,11.038-1.217,6.24-9.073,6.24-10.1c0,0-2.043-2.656-.824-3.066C46.925,9.511,47.749,11.139,47.749,11.139Z" transform="translate(36.599 0.052)" fill="#0b4870"/>
    </g>
  </g>
</svg>
