<svg xmlns="http://www.w3.org/2000/svg" width="58" height="58" viewBox="0 0 58 58">
  <defs>
    <filter id="Background_Color" x="0" y="0" width="58" height="58" filterUnits="userSpaceOnUse">
      <feOffset dy="3" input="SourceAlpha"/>
      <feGaussianBlur stdDeviation="3" result="blur"/>
      <feFlood flood-color="#0336ff" flood-opacity="0.161"/>
      <feComposite operator="in" in2="blur"/>
      <feComposite in="SourceGraphic"/>
    </filter>
  </defs>
  <g id="Component_29_8" data-name="Component 29 – 8" transform="translate(9 6)">
    <g transform="matrix(1, 0, 0, 1, -9, -6)" filter="url(#Background_Color)">
      <rect id="Background_Color-2" data-name="Background Color" width="40" height="40" rx="20" transform="translate(9 6)" fill="#fff"/>
    </g>
    <g id="Group_19284" data-name="Group 19284" transform="translate(8 8)">
      <path id="Path_2573" data-name="Path 2573" d="M0,0H24V24H0Z" fill="none"/>
      <path id="Line_429" data-name="Line 429" d="M16,1H0A1,1,0,0,1-1,0,1,1,0,0,1,0-1H16a1,1,0,0,1,1,1A1,1,0,0,1,16,1Z" transform="translate(4 6)" fill="#2e3034"/>
      <path id="Line_430" data-name="Line 430" d="M10,1H0A1,1,0,0,1-1,0,1,1,0,0,1,0-1H10a1,1,0,0,1,1,1A1,1,0,0,1,10,1Z" transform="translate(4 12)" fill="#2e3034"/>
      <path id="Line_431" data-name="Line 431" d="M14,1H0A1,1,0,0,1-1,0,1,1,0,0,1,0-1H14a1,1,0,0,1,1,1A1,1,0,0,1,14,1Z" transform="translate(4 18)" fill="#2e3034"/>
    </g>
  </g>
</svg>
